<svg xmlns="http://www.w3.org/2000/svg" version="1.1" xmlns:xlink="http://www.w3.org/1999/xlink" xmlns:svgjs="http://svgjs.dev/svgjs" width="128" height="128" viewBox="0 0 128 128"><g transform="matrix(0.8046875,0,0,0.8046875,12.221578124999994,23.236300060552878)"><svg viewBox="0 0 96 75" data-background-color="#ffffff" preserveAspectRatio="xMidYMid meet" height="100" width="128" xmlns="http://www.w3.org/2000/svg" xmlns:xlink="http://www.w3.org/1999/xlink"><g id="tight-bounds" transform="matrix(1,0,0,1,0.25950000000000273,0.493351399873049)"><svg viewBox="0 0 95.481 74.01329720025392" height="74.01329720025392" width="95.481"><g><svg viewBox="0 0 95.481 74.01329720025392" height="74.01329720025392" width="95.481"><g><svg viewBox="0 0 95.481 74.01329720025392" height="74.01329720025392" width="95.481"><g id="textblocktransform"><svg viewBox="0 0 95.481 74.01329720025392" height="74.01329720025392" width="95.481" id="textblock"><g><svg viewBox="0 0 95.481 74.01329720025392" height="74.01329720025392" width="95.481"><g><svg viewBox="0 0 95.481 74.01329720025392" height="74.01329720025392" width="95.481"><g><svg xmlns="http://www.w3.org/2000/svg" xmlns:xlink="http://www.w3.org/1999/xlink" version="1.1" x="0" y="0" viewBox="4.881783459375341 15.026347302077928 90.23610729272286 69.94765269792208" enable-background="new 0 0 100 100" xml:space="preserve" height="74.01329720025392" width="95.481" class="icon-icon-0" data-fill-palette-color="accent" id="icon-0"></svg></g></svg></g></svg></g></svg></g></svg></g><g></g></svg></g><defs></defs><mask id="305accf5-7eea-4449-8289-959a21ff08d2"><g id="SvgjsG2516"><svg viewBox="0 0 95.481 74.01329720025392" height="74.01329720025392" width="95.481"><g><svg viewBox="0 0 95.481 74.01329720025392" height="74.01329720025392" width="95.481"><g><svg viewBox="0 0 95.481 74.01329720025392" height="74.01329720025392" width="95.481"><g id="SvgjsG2515"><svg viewBox="0 0 95.481 74.01329720025392" height="74.01329720025392" width="95.481" id="SvgjsSvg2514"><g><svg viewBox="0 0 95.481 74.01329720025392" height="74.01329720025392" width="95.481"><g><svg viewBox="0 0 95.481 74.01329720025392" height="74.01329720025392" width="95.481"><g><svg xmlns="http://www.w3.org/2000/svg" xmlns:xlink="http://www.w3.org/1999/xlink" version="1.1" x="0" y="0" viewBox="4.881783459375341 15.026347302077928 90.23610729272286 69.94765269792208" enable-background="new 0 0 100 100" xml:space="preserve" height="74.01329720025392" width="95.481" class="icon-icon-0" data-fill-palette-color="accent" id="SvgjsSvg2513"><g fill="white"><path d="M85.998 72.419S84.53 71.42 83.722 70.078C82.804 68.558 82.215 66.919 82.215 66.919L83.969 66.082S84.009 67.592 84.649 69.411C85.277 71.196 85.998 72.419 85.998 72.419" fill="white"></path><path d="M82.442 74.682S80.74 73.523 79.801 71.966C78.736 70.2 78.053 68.297 78.053 68.297L80.087 67.327S80.133 69.078 80.876 71.189C81.606 73.263 82.442 74.682 82.442 74.682" fill="white"></path><path d="M78.715 77.219S76.995 75.854 76.117 74.125C75.125 72.167 74.546 70.09 74.546 70.09L76.784 69.218S76.697 71.085 77.322 73.384C77.937 75.646 78.715 77.219 78.715 77.219" fill="white"></path><path d="M74.177 80.258S72.281 78.495 71.406 76.382C70.416 73.988 69.925 71.491 69.925 71.491L72.638 70.669S72.365 72.856 72.891 75.62C73.404 78.336 74.177 80.258 74.177 80.258" fill="white"></path><path d="M67.754 82.926S65.69 80.684 64.972 78.168C64.16 75.317 63.993 72.41 63.993 72.41L67.547 71.805S66.811 74.266 66.972 77.482C67.131 80.641 67.754 82.926 67.754 82.926" fill="white"></path><path d="M60.468 84.202S57.995 81.517 57.355 78.622C56.628 75.341 56.768 72.043 56.768 72.043L61.58 71.614S60.292 74.343 60.105 77.99C59.924 81.573 60.468 84.202 60.468 84.202" fill="white"></path><path d="M53.841 84.974S51.734 82.257 51.153 79.358C50.497 76.068 50.566 72.779 50.566 72.779L54.59 72.42S53.551 75.126 53.448 78.766C53.348 82.341 53.841 84.974 53.841 84.974" fill="white"></path><path d="M36.625 83.486S40.125 81.473 41.665 78.659C43.41 75.468 44.203 71.987 44.203 71.987L39.015 70.014S39.653 73.266 38.811 77.126C37.981 80.919 36.625 83.486 36.625 83.486" fill="white"></path><path d="M7.839 65.833S11.559 65.328 14.18 63.496C17.15 61.419 19.536 58.778 19.536 58.778L16.552 55.389S15.383 58.317 12.764 61.258C10.192 64.146 7.839 65.833 7.839 65.833" fill="white"></path><path d="M29.286 83.161S33.188 81.159 35.007 78.184C37.067 74.813 38.108 71.075 38.108 71.075L32.58 68.664S33.103 72.226 31.989 76.373C30.891 80.444 29.286 83.161 29.286 83.161" fill="white"></path><path d="M23.559 81.287S27.564 79.316 29.529 76.307C31.755 72.896 32.981 69.086 32.981 69.086L27.566 66.498S27.916 70.16 26.595 74.387C25.299 78.538 23.559 81.287 23.559 81.287" fill="white"></path><path d="M15.505 79.216S20.508 77.407 23.233 74.099C26.319 70.349 28.271 65.996 28.271 65.996L22.196 62.219S22.128 66.606 20.01 71.44C17.926 76.187 15.505 79.216 15.505 79.216" fill="white"></path><path d="M10.495 71.806S14.845 70.982 17.52 68.625C20.55 65.95 22.729 62.633 22.729 62.633L18.238 58.728S17.604 62.322 15.224 66.012C12.885 69.638 10.495 71.806 10.495 71.806" fill="white"></path><path d="M44.794 84.57S46.71 81.719 47.664 78.925C48.747 75.757 49.491 72.915 49.491 72.915L46.269 72.124S46.246 74.751 45.725 78.347C45.212 81.88 44.794 84.57 44.794 84.57" fill="white"></path><path d="M87.121 64.183S78.455 49.202 61.61 43.558C55.082 41.37 48.636 40.262 42.459 40.262 36.722 40.262 33.377 41.241 33.239 41.283L33.764 43.477C33.81 43.469 44.302 41.595 60.356 46.761 71.512 50.35 79.262 58.047 82.897 62.32 78.662 64.378 68.081 68.582 52.356 68.582 31.838 68.582 16.159 53.912 16.003 53.765L12.783 56.933C13.445 57.651 29.269 74.536 52.072 74.859 52.432 74.865 52.788 74.867 53.142 74.867 75.125 74.867 87.118 65.28 87.618 64.873z" fill="white"></path><path d="M94.606 33.783C89.269 43.174 67.773 29.022 47.868 25.344 27.964 21.666 9.838 30.754 5.573 33.999 1.308 37.246 16.947 18.204 47.868 15.391 78.791 12.578 98.607 26.742 94.606 33.783" fill="white"></path></g></svg></g></svg></g></svg></g></svg></g></svg></g><g></g></svg></g><defs><mask></mask></defs></svg><rect width="95.481" height="74.01329720025392" fill="black" stroke="none" visibility="hidden"></rect></g></mask><linearGradient x1="0" x2="1" y1="0.5" y2="0.5" id="68781c6f-ef67-41a8-a45e-9d9966c413c2"><stop stop-color="#ffa62e" offset="0"></stop><stop stop-color="#f71b3d" offset="1"></stop></linearGradient><rect width="95.481" height="74.01329720025392" fill="url(#68781c6f-ef67-41a8-a45e-9d9966c413c2)" mask="url(#305accf5-7eea-4449-8289-959a21ff08d2)" data-fill-palette-color="accent"></rect></svg><rect width="95.481" height="74.01329720025392" fill="none" stroke="none" visibility="hidden"></rect></g></svg></g></svg>